HIERARCHY
ROOT Hip
{
	OFFSET 0 1.131 0.0052
	CHANNELS 6 Xposition Yposition Zposition Xrotation Yrotation Zrotation
	JOINT Abdomen
	{
		OFFSET 0 -0.047353 -0.05
		CHANNELS 3 Xrotation Zrotation Yrotation
		JOINT Chest
		{
			OFFSET 0 0.132153 0.007439
			CHANNELS 3 Xrotation Zrotation Yrotation
			JOINT Neck
			{
				OFFSET 0 0.3078 0.006161
				CHANNELS 3 Xrotation Zrotation Yrotation
				JOINT Head_comp
				{
					OFFSET 0 0.0884 0.013
					CHANNELS 3 Xrotation Yrotation Zrotation
					End Site
					{
						OFFSET -0 0.156 0.0624
					}
				}
			}
			JOINT Left_Collar
			{
				OFFSET 0.02282 0.250342 0.017193
				CHANNELS 2 Yrotation Zrotation
				JOINT Left_Shoulder
				{
					OFFSET 0.15421 0 0
					CHANNELS 3 Xrotation Yrotation Zrotation
					JOINT Left_Forearm
					{
						OFFSET 0.265212 0 0
						CHANNELS 2 Yrotation Xrotation
						JOINT Left_Hand
						{
							OFFSET 0.27571 0 0
							CHANNELS 2 Zrotation Yrotation
							JOINT L1ProxPhalanx
							{
								OFFSET 0.014142 0.001733 0.014142
								CHANNELS 3 Yrotation Zrotation Xrotation
								JOINT L1MidPhalanx
								{
									OFFSET 0.04 0 0
									CHANNELS 1 Zrotation
									JOINT L1DistPhalanx
									{
										OFFSET 0.035 0 0
										CHANNELS 1 Zrotation
										End Site
										{
											OFFSET 0.029 -0 -0
										}
									}
								}
							}
							JOINT L2ProxPhalanx
							{
								OFFSET 0.0821037 0.001578 0.0219996
								CHANNELS 2 Yrotation Zrotation
								JOINT L2MidPhalanx
								{
									OFFSET 0.04 0 0
									CHANNELS 1 Zrotation
									JOINT L2DistPhalanx
									{
										OFFSET 0.028 0 0
										CHANNELS 1 Zrotation
										End Site
										{
											OFFSET 0.02 -0 -0
										}
									}
								}
							}
							JOINT L3ProxPhalanx
							{
								OFFSET 0.083 0 0
								CHANNELS 2 Yrotation Zrotation
								JOINT L3MidPhalanx
								{
									OFFSET 0.053 0 0
									CHANNELS 1 Zrotation
									JOINT L3DistPhalanx
									{
										OFFSET 0.03 0 0
										CHANNELS 1 Zrotation
										End Site
										{
											OFFSET 0.023 -0 -0
										}
									}
								}
							}
							JOINT L4ProxPhalanx
							{
								OFFSET 0.077274 -0.000761 -0.0207055
								CHANNELS 2 Yrotation Zrotation
								JOINT L4MidPhalanx
								{
									OFFSET 0.05 0 0
									CHANNELS 1 Zrotation
									JOINT L4DistPhalanx
									{
										OFFSET 0.03 0 0
										CHANNELS 1 Zrotation
										End Site
										{
											OFFSET 0.023 -0 -0
										}
									}
								}
							}
							JOINT L5ProxPhalanx
							{
								OFFSET 0.0675499 -0.001644 -0.039
								CHANNELS 2 Yrotation Zrotation
								JOINT L5MidPhalanx
								{
									OFFSET 0.04 0 0
									CHANNELS 1 Zrotation
									JOINT L5DistPhalanx
									{
										OFFSET 0.021 0 0
										CHANNELS 1 Zrotation
										End Site
										{
											OFFSET 0.022 -0 -0
										}
									}
								}
							}
						}
					}
				}
			}
			JOINT Right_Collar
			{
				OFFSET -0.02282 0.250342 0.017193
				CHANNELS 2 Yrotation Zrotation
				JOINT Right_Shoulder
				{
					OFFSET -0.15421 0 0
					CHANNELS 3 Xrotation Yrotation Zrotation
					JOINT Right_Forearm
					{
						OFFSET -0.265212 0 0
						CHANNELS 2 Yrotation Xrotation
						JOINT Right_Hand
						{
							OFFSET -0.27571 3e-006 0
							CHANNELS 2 Zrotation Yrotation
							JOINT R1ProxPhalanx
							{
								OFFSET -0.014142 0.001733 0.014142
								CHANNELS 3 Yrotation Zrotation Xrotation
								JOINT R1MidPhalanx
								{
									OFFSET -0.04 0 0
									CHANNELS 1 Zrotation
									JOINT R1DistPhalanx
									{
										OFFSET -0.035 0 0
										CHANNELS 1 Zrotation
										End Site
										{
											OFFSET -0.029 -0 -0
										}
									}
								}
							}
							JOINT R2ProxPhalanx
							{
								OFFSET -0.0821037 0.001578 0.0219996
								CHANNELS 2 Yrotation Zrotation
								JOINT R2MidPhalanx
								{
									OFFSET -0.04 0 0
									CHANNELS 1 Zrotation
									JOINT R2DistPhalanx
									{
										OFFSET -0.028 0 0
										CHANNELS 1 Zrotation
										End Site
										{
											OFFSET -0.02 -0 -0
										}
									}
								}
							}
							JOINT R3ProxPhalanx
							{
								OFFSET -0.083 0 0
								CHANNELS 2 Yrotation Zrotation
								JOINT R3MidPhalanx
								{
									OFFSET -0.053 0 0
									CHANNELS 1 Zrotation
									JOINT R3DistPhalanx
									{
										OFFSET -0.03 0 0
										CHANNELS 1 Zrotation
										End Site
										{
											OFFSET -0.023 -0 -0
										}
									}
								}
							}
							JOINT R4ProxPhalanx
							{
								OFFSET -0.077274 -0.000761 -0.0207055
								CHANNELS 2 Yrotation Zrotation
								JOINT R4MidPhalanx
								{
									OFFSET -0.05 0 0
									CHANNELS 1 Zrotation
									JOINT R4DistPhalanx
									{
										OFFSET -0.03 0 0
										CHANNELS 1 Zrotation
										End Site
										{
											OFFSET -0.023 -0 -0
										}
									}
								}
							}
							JOINT R5ProxPhalanx
							{
								OFFSET -0.0675499 -0.001644 -0.039
								CHANNELS 2 Yrotation Zrotation
								JOINT R5MidPhalanx
								{
									OFFSET -0.04 0 0
									CHANNELS 1 Zrotation
									JOINT R5DistPhalanx
									{
										OFFSET -0.021 0 0
										CHANNELS 1 Zrotation
										End Site
										{
											OFFSET -0.022 -0 -0
										}
									}
								}
							}
						}
					}
				}
			}
		}
	}
	JOINT Left_Thigh
	{
		OFFSET 0.1118 -0.1612 -0.0442
		CHANNELS 3 Xrotation Zrotation Yrotation
		JOINT Left_Shin
		{
			OFFSET 0 -0.477856 0
			CHANNELS 1 Xrotation
			JOINT Left_Foot
			{
				OFFSET 0 -0.431952 0
				CHANNELS 2 Xrotation Zrotation
				JOINT Left_Toe
				{
					OFFSET 0 -0.0442 0.119
					CHANNELS 1 Xrotation
					End Site
					{
						OFFSET -0 -0 0.07
					}
				}
			}
		}
	}
	JOINT Right_Thigh
	{
		OFFSET -0.1118 -0.1612 -0.0442
		CHANNELS 3 Xrotation Zrotation Yrotation
		JOINT Right_Shin
		{
			OFFSET 0 -0.477856 0
			CHANNELS 1 Xrotation
			JOINT Right_Foot
			{
				OFFSET 0 -0.431952 0
				CHANNELS 2 Xrotation Zrotation
				JOINT Right_Toe
				{
					OFFSET 0 -0.0442 0.119
					CHANNELS 1 Xrotation
					End Site
					{
						OFFSET -0 -0 0.07
					}
				}
			}
		}
	}
}
MOTION
Frames: 13
Frame Time: 0.009975
-0.103105 -0.0600606 0.0460165 1.21386e-013 3.96398e-008 -5.1094e-006 0 -0 0 0 -0 0 0 -0 0 -0.712476 0.296154 7.49396e-013 6.05954 -33.6551 16.3125 -10.5102 -25.5294 -122.275 -6.95015 7.16501 -17.5685 -40.5316 -43.5896 103.283 -7.10789 -4.81548 2.69559 -7.40342 -2.98992 -6.72733 5.89092 0.508958 -5.4973 -5.3917 11.1257 1.19015 -12.1062 -9.35422 19.4153 3.33565 -41.2194 -1.46018 3.21431 35.123 -3.69056 32.5879 31.8614 60.8435 10.1015 -2.34452 -5.96671 42.1103 66.1337 106.697 17.9269 21.4748 -10.9039 47.4709 23.4364 40.2144 -6.98102 72.4765 61.7748 66.0236 -8.04205 72.0444 84.6934 23.1584 -20.4614 59.4141 126.221 -3.41702 0.430486 -0.547555 -0.00411405 0.0240216 -0.454488 0.547575 0 0.441891 -0.547554 -0.00422305 8.58043e-007 -0.441872 0.547575 0 
-0.103117 -0.0600598 0.0459212 4.85812e-013 3.91716e-008 -5.10941e-006 0 -0 0 0 -0 0 0 -0 0 -0.712467 0.296142 -1.24774e-012 6.05954 -33.6551 16.3125 -10.5102 -25.5294 -122.275 -6.95015 7.16501 -17.5685 -40.5316 -43.5896 103.283 -7.10789 -4.81548 2.69559 -7.40342 -2.98992 -6.72733 5.89092 0.508958 -5.4973 -5.3917 11.1257 1.19015 -12.1062 -9.35422 19.4153 3.33565 -41.2194 -1.46018 3.4163 35.1497 -4.0253 32.83 31.9833 59.0843 10.7235 -2.37772 -5.6025 36.8046 52.3766 101.818 15.5782 20.9364 -6.82362 25.0183 11.9083 16.3938 -5.88054 58.04 63.9372 72.6045 -6.15732 60.3949 87.3956 31.8755 -15.6305 52.6689 121.806 -18.3138 0.424486 -0.546807 -0.00405119 0.0240216 -0.448489 0.546827 0 0.435892 -0.546806 -0.00416004 0 -0.435872 0.546827 0 
-0.103108 -0.060059 0.0458022 -1.74324e-012 3.8566e-008 -5.10941e-006 0 -0 0 0 -0 0 0 -0 0 -0.712456 0.296125 8.13774e-013 6.05954 -33.6551 16.3125 -10.5102 -25.5294 -122.275 -6.95015 7.16501 -17.5685 -40.5316 -43.5896 103.283 -7.10789 -4.81548 2.69559 -7.40342 -2.98992 -6.72733 5.89092 0.508958 -5.4973 -5.3917 11.1257 1.19015 -12.1062 -9.35422 19.4153 3.33565 -41.2194 -1.46018 3.61745 35.1318 -4.26649 33.0628 32.043 57.5392 11.2533 -2.48649 -5.26026 40.224 49.9422 93.8031 14.5756 25.5799 -4.29388 25.2455 16.7186 21.1199 -4.48328 57.0205 63.8526 69.767 -3.77083 61.1872 85.9995 36.1816 -6.7501 60.4139 117.844 -19.9682 0.416994 -0.547411 -0.00398402 0.0240216 -0.440997 0.547431 0 0.4284 -0.547411 -0.00409299 8.40967e-007 -0.428381 0.547431 0 
-0.103054 -0.0600588 0.0457145 8.67941e-013 3.78304e-008 -5.10942e-006 0 -0 0 0 -0 0 0 -0 0 -0.712447 0.296035 -1.90585e-012 6.05954 -33.6551 16.3125 -10.5102 -25.5294 -122.275 -6.95015 7.16501 -17.5685 -40.5316 -43.5896 103.283 -7.10789 -4.81548 2.69559 -7.40342 -2.98992 -6.72733 5.89092 0.508958 -5.4973 -5.3917 11.1257 1.19015 -12.1062 -9.35422 19.4153 3.33565 -41.2194 -1.46018 3.80576 34.997 -4.47735 33.1925 32.023 56.228 11.7132 -2.59786 -4.98586 40.7952 66.0003 108.757 20.0606 17.6262 -7.20739 43.6851 21.6275 26.1752 -5.56909 69.6425 58.8723 60.4782 -5.84834 70.6261 83.8447 31.4698 -11.0886 66.687 124.62 -13.7141 0.411471 -0.550785 -0.00395549 0.0240216 -0.435473 0.550804 0 0.422876 -0.550784 -0.00406513 1.70755e-006 -0.422858 0.550804 0 
-0.102964 -0.0600593 0.0456568 -7.08607e-013 3.7587e-008 -5.10942e-006 0 -0 0 0 -0 0 0 -0 0 -0.712443 0.295765 -2.79975e-012 6.05954 -33.6551 16.3125 -10.5102 -25.5294 -122.275 -6.95015 7.16501 -17.5685 -40.5316 -43.5896 103.283 -7.10789 -4.81548 2.69559 -7.40342 -2.98992 -6.72733 5.89092 0.508958 -5.4973 -5.3917 11.1257 1.19015 -12.1062 -9.35422 19.4153 3.33565 -41.2194 -1.46018 3.96491 34.7104 -4.70098 33.2752 32.0967 55.0892 12.0617 -2.62402 -4.75939 35.4187 54 104.92 19.145 19.7881 -6.04355 19.9639 9.44262 10.0061 -4.0297 57.291 63.7003 79.0497 -2.40014 59.0441 94.5783 36.9412 -7.29843 60.8664 125.242 -27.6757 0.407832 -0.55646 -0.00396085 0.0240216 -0.431834 0.556479 0 0.419237 -0.556459 -0.00407162 1.2376e-006 -0.419218 0.556479 0 
-0.102813 -0.0600602 0.045582 1.10524e-012 3.71761e-008 -5.10943e-006 0 -0 0 0 -0 0 0 -0 0 -0.71244 0.295339 -3.0283e-012 6.05954 -33.6551 16.3125 -10.5102 -25.5294 -122.275 -6.95015 7.16501 -17.5685 -40.5316 -43.5896 103.283 -7.10789 -4.81548 2.69559 -7.40342 -2.98992 -6.72733 5.89092 0.508958 -5.4973 -5.3917 11.1257 1.19015 -12.1062 -9.35422 19.4153 3.33565 -41.2194 -1.46018 4.09413 34.2198 -4.7969 33.3638 32.1576 54.1635 12.2314 -2.46506 -4.63813 40.889 50.0086 98.7741 19.2404 20.0615 -4.11083 21.6208 19.2528 22.0128 -2.48724 56.7313 66.873 76.8545 -0.30926 59.9102 93.9736 38.0631 -2.74079 64.5374 123.291 -34.0505 0.403125 -0.565978 -0.00398205 0.0240216 -0.427127 0.565997 0 0.414529 -0.565977 -0.0040947 1.37335e-006 -0.414511 0.565997 0 
-0.102604 -0.060062 0.0455396 2.89752e-013 3.6745e-008 -5.10945e-006 0 -0 0 0 -0 0 0 -0 0 -0.712441 0.294763 7.44536e-012 6.05954 -33.6551 16.3125 -10.5102 -25.5294 -122.275 -6.95015 7.16501 -17.5685 -40.5316 -43.5896 103.283 -7.10789 -4.81548 2.69559 -7.40342 -2.98992 -6.72733 5.89092 0.508958 -5.4973 -5.3917 11.1257 1.19015 -12.1062 -9.35422 19.4153 3.33565 -41.2194 -1.46018 4.15048 33.5099 -4.98421 33.4099 32.3069 53.3905 12.3795 -2.33965 -4.6005 47.9049 58.7351 100.831 23.0273 15.0528 -4.40491 36.9844 23.2255 24.4422 -3.55044 68.8607 60.6093 56.4844 -2.71008 71.9895 84.1538 30.4927 -5.84484 69.7134 124.136 -34.1944 0.400454 -0.579135 -0.00404774 0.0240216 -0.424455 0.579155 0 0.411859 -0.579135 -0.00416301 1.46538e-006 -0.411839 0.579155 0 
-0.102341 -0.0600646 0.0455208 -1.96501e-012 3.67117e-008 -5.10946e-006 0 -0 0 0 -0 0 0 -0 0 -0.712447 0.294033 1.08609e-011 6.05954 -33.6551 16.3125 -10.5102 -25.5294 -122.275 -6.95015 7.16501 -17.5685 -40.5316 -43.5896 103.283 -7.10789 -4.81548 2.69559 -7.40342 -2.98992 -6.72733 5.89092 0.508958 -5.4973 -5.3917 11.1257 1.19015 -12.1062 -9.35422 19.4153 3.33565 -41.2194 -1.46018 4.12459 32.6232 -5.27578 33.4333 32.5272 52.7539 12.5518 -2.28285 -4.61564 40.0763 51.0151 102.204 20.4368 15.7904 -5.32596 19.5024 8.21686 5.80483 -4.34931 60.6341 58.5378 61.2467 -2.65899 64.3878 100.088 -14.1182 -6.69347 67.0312 120.984 -48.8704 0.399275 -0.595665 -0.00415093 0.0240216 -0.423275 0.595684 0 0.41068 -0.595664 -0.0042695 1.15912e-006 -0.410659 0.595684 0 
-0.102018 -0.0600678 0.0454936 1.57243e-012 3.65287e-008 -5.10948e-006 0 -0 0 0 -0 0 0 -0 0 -0.712454 0.293103 1.77995e-011 6.05954 -33.6551 16.3125 -10.5102 -25.5294 -122.275 -6.95015 7.16501 -17.5685 -40.5316 -43.5896 103.283 -7.10789 -4.81548 2.69559 -7.40342 -2.98992 -6.72733 5.89092 0.508958 -5.4973 -5.3917 11.1257 1.19015 -12.1062 -9.35422 19.4153 3.33565 -41.2194 -1.46018 4.03959 31.529 -5.4378 33.4931 32.7396 52.312 12.5882 -2.11845 -4.6556 34.6467 54.8649 108.906 19.9525 13.617 -6.63749 27.9471 13.6333 15.7902 -4.90699 61.0897 61.5728 60.1537 -3.90101 63.6426 102.037 -20.4733 -8.12551 67.607 123.214 -51.9601 0.397562 -0.616049 -0.00427458 0.0240216 -0.421561 0.616069 0 0.408968 -0.616048 -0.00439721 2.41484e-006 -0.408947 0.616069 0 
-0.101682 -0.0600715 0.0455064 8.14553e-013 3.64085e-008 -5.1095e-006 0 -0 0 0 -0 0 0 -0 0 -0.712465 0.292105 3.0563e-011 6.05954 -33.6551 16.3125 -10.5102 -25.5294 -122.275 -6.95015 7.16501 -17.5685 -40.5316 -43.5896 103.283 -7.10789 -4.81548 2.69559 -7.40342 -2.98992 -6.72733 5.89092 0.508958 -5.4973 -5.3917 11.1257 1.19015 -12.1062 -9.35422 19.4153 3.33565 -41.2194 -1.46018 3.87468 30.3308 -5.62921 33.5405 33.0657 52.013 12.6006 -2.04816 -4.70863 36.8025 59.0057 102.995 19.4273 22.547 -10.0403 35.1119 13.5945 16.077 -6.32888 66.8489 58.5117 61.7913 -6.80599 68.707 83.3712 27.9344 -7.70814 72.4545 126.198 -57.4461 0.398369 -0.637166 -0.00443027 0.0240216 -0.422366 0.637186 0 0.409773 -0.637165 -0.00455709 2.41484e-006 -0.409751 0.637186 0 
-0.101381 -0.0600752 0.0455411 1.0388e-012 3.66925e-008 -5.10952e-006 0 -0 0 0 -0 0 0 -0 0 -0.712478 0.291205 1.9204e-011 6.05954 -33.6551 16.3125 -10.5102 -25.5294 -122.275 -6.95015 7.16501 -17.5685 -40.5316 -43.5896 103.283 -7.10789 -4.81548 2.69559 -7.40342 -2.98992 -6.72733 5.89092 0.508958 -5.4973 -5.3917 11.1257 1.19015 -12.1062 -9.35422 19.4153 3.33565 -41.2194 -1.46018 3.66845 29.2163 -5.80865 33.566 33.4129 51.8771 12.6165 -2.10841 -4.79141 47.5162 50.8066 92.0761 18.3148 25.198 -8.55861 33.1366 20.8273 24.3955 -5.34434 66.4038 59.5464 63.6496 -5.7124 69.1491 81.9739 27.7394 -6.17364 72.2272 124.183 -65.7407 0.400556 -0.656127 -0.00458705 0.0240216 -0.424552 0.656148 0 0.411961 -0.656126 -0.00471765 1.49369e-006 -0.411935 0.656148 0 
-0.101121 -0.0600785 0.045586 7.21465e-013 3.67901e-008 -5.10954e-006 0 -0 0 0 -0 0 0 -0 0 -0.71249 0.290443 2.11449e-011 6.05954 -33.6551 16.3125 -10.5102 -25.5294 -122.275 -6.95015 7.16501 -17.5685 -40.5316 -43.5896 103.283 -7.10789 -4.81548 2.69559 -7.40342 -2.98992 -6.72733 5.89092 0.508958 -5.4973 -5.3917 11.1257 1.19015 -12.1062 -9.35422 19.4153 3.33565 -41.2194 -1.46018 3.44271 28.2524 -5.85973 33.5744 33.6563 51.9764 12.5589 -2.20441 -4.88972 53.9727 52.2892 98.1382 19.3833 13.993 -4.76563 49.8854 36.9275 46.6707 -3.31735 69.5679 65.1794 56.1824 -3.39452 71.3776 85.4871 21.7907 -8.68011 66.1723 123.573 -57.4797 0.403387 -0.672499 -0.00473485 0.0240216 -0.427381 0.672521 0 0.414793 -0.672498 -0.00486872 8.02547e-007 -0.414765 0.672521 0 
-0.100913 -0.0600816 0.045663 1.45746e-012 3.7218e-008 -5.10955e-006 0 -0 0 0 -0 0 0 -0 0 -0.712504 0.289783 1.89302e-011 6.05954 -33.6551 16.3125 -10.5102 -25.5294 -122.275 -6.95015 7.16501 -17.5685 -40.5316 -43.5896 103.283 -7.10789 -4.81548 2.69559 -7.40342 -2.98992 -6.72733 5.89092 0.508958 -5.4973 -5.3917 11.1257 1.19015 -12.1062 -9.35422 19.4153 3.33565 -41.2194 -1.46018 3.16748 27.4377 -5.90644 33.558 33.9687 52.2476 12.4213 -2.37313 -4.96312 49.3679 55.0348 104.661 16.2159 9.73515 -6.98142 40.5008 19.7973 26.9137 -9.86454 44.7593 42.3173 36.4182 -15.5256 39.3547 67.512 8.42916 -27.3546 33.6472 96.5542 -43.6694 0.408236 -0.685647 -0.00488539 0.0240216 -0.432228 0.685669 0 0.419641 -0.685646 -0.00502187 1.70755e-006 -0.419613 0.685669 0 
